<svg
            version="1.0"
            xmlns="http://www.w3.org/2000/svg"
            width="100%"
            height="100%"
            viewBox="0 0 1200.000000 1200.000000"
            preserveAspectRatio="xMidYMid meet"
          >
            <g
              transform="translate(0.000000,1200.000000) scale(0.100000,-0.100000)"
              fill="#000000"
              stroke="none"
            >
              <path
                d="M7042 10159 c-75 -16 -87 -45 -143 -361 -23 -131 -45 -241 -48 -246
-3 -5 -112 -58 -241 -116 -129 -59 -243 -115 -254 -124 -53 -48 -61 -125 -18
-172 15 -16 128 -83 257 -151 127 -67 231 -122 231 -123 1 0 14 -120 29 -266
16 -154 33 -276 41 -292 15 -30 80 -68 114 -68 37 0 60 18 257 202 115 107
199 178 211 178 11 0 127 -22 258 -50 131 -27 254 -50 275 -50 63 0 119 62
119 132 0 22 -40 120 -110 273 -60 132 -110 243 -110 247 0 4 59 110 131 235
93 161 133 240 136 268 5 53 -22 103 -69 127 l-37 19 -258 -40 c-142 -23 -266
-43 -275 -45 -12 -3 -72 57 -199 199 -206 230 -219 241 -297 224z m383 -685
c25 -10 57 -9 192 9 90 11 165 18 168 15 3 -3 -33 -70 -80 -148 -47 -79 -85
-153 -85 -166 0 -12 34 -93 75 -180 41 -86 74 -158 72 -160 -1 -2 -78 10 -171
27 -108 19 -176 27 -192 22 -13 -4 -80 -61 -149 -127 -69 -65 -128 -116 -131
-113 -3 2 -11 78 -20 168 -13 143 -18 167 -38 194 -16 20 -73 56 -165 104 -78
40 -141 77 -141 80 0 4 69 41 153 82 113 55 157 82 172 104 13 21 28 79 43
170 13 77 26 148 29 158 3 14 31 -10 121 -104 64 -67 131 -128 147 -135z"
                className="svg-elem-1"
              ></path>
              <path
                d="M5235 10022 c-43 -27 -49 -36 -84 -147 -33 -103 -96 -242 -130 -285
l-19 -24 -66 61 c-124 116 -258 161 -448 150 -181 -11 -319 -66 -407 -163
-190 -208 -126 -510 134 -634 191 -91 469 -52 672 93 24 17 45 28 48 25 3 -3
11 -52 17 -111 9 -80 9 -126 0 -193 -6 -48 -13 -89 -16 -91 -2 -2 -39 13 -82
35 -162 80 -282 103 -421 78 -249 -44 -430 -250 -409 -466 17 -160 143 -310
304 -361 186 -59 391 -2 557 153 74 69 74 69 81 43 4 -15 4 -60 2 -101 -6 -97
-53 -192 -146 -300 -107 -125 -184 -225 -233 -302 -28 -46 -49 -70 -59 -67 -8
2 -66 9 -129 16 -330 35 -631 -52 -835 -241 -62 -56 -135 -167 -174 -262 -16
-40 -454 -1115 -973 -2388 l-944 -2315 1 -80 c2 -130 52 -217 159 -273 41 -21
64 -26 130 -26 l80 -1 1570 647 c864 355 1936 797 2383 982 448 184 839 350
869 368 31 18 86 62 123 98 288 278 346 748 160 1278 -62 175 -64 157 19 176
73 17 228 36 295 36 44 0 44 4 0 -100 -45 -107 -64 -198 -71 -325 -9 -189 29
-342 124 -494 120 -192 301 -296 513 -294 239 2 436 143 526 378 35 91 44 249
21 340 -40 158 -111 279 -236 409 -97 100 -170 156 -278 213 l-86 46 26 22
c172 136 404 193 615 149 245 -50 445 -169 837 -498 262 -220 385 -309 510
-371 138 -68 213 -88 335 -88 112 -1 188 17 305 72 92 43 115 68 115 124 0 58
-25 96 -77 119 -52 23 -92 19 -162 -17 -74 -37 -151 -49 -229 -35 -136 23
-276 112 -573 365 -222 189 -350 289 -469 367 -190 126 -403 214 -573 237
-308 43 -624 -64 -864 -292 l-75 -71 -166 3 c-185 3 -286 -7 -440 -46 -57 -14
-104 -24 -106 -22 -2 2 -25 42 -51 89 -98 175 -267 406 -398 546 l-58 62 57
33 c73 41 185 147 236 223 90 132 131 266 131 426 0 131 -20 217 -78 335 -76
157 -194 274 -350 350 -111 53 -183 69 -325 69 -150 1 -214 -14 -350 -81 -80
-39 -109 -61 -186 -137 -78 -78 -98 -106 -137 -186 -25 -52 -49 -112 -53 -132
-3 -21 -10 -38 -14 -38 -4 0 -43 16 -86 36 -44 20 -126 54 -184 76 -58 22
-107 41 -109 43 -5 6 115 169 191 258 93 110 143 187 177 277 70 180 59 370
-31 542 l-30 57 26 78 c43 128 56 209 56 349 0 143 -9 208 -46 331 l-24 82 55
81 c74 109 149 259 191 385 38 113 41 140 20 189 -30 71 -114 98 -181 58z
m-539 -531 c22 -10 64 -43 93 -72 l53 -54 -47 -43 c-26 -23 -87 -62 -134 -85
-83 -40 -90 -42 -181 -42 -82 0 -102 3 -144 25 -54 28 -86 75 -86 127 0 43 56
106 115 128 95 37 267 45 331 16z m-21 -981 c52 -18 155 -75 155 -86 0 -3 -32
-38 -71 -79 -119 -124 -232 -163 -334 -116 -109 50 -139 148 -68 224 70 75
200 98 318 57z m1411 -1034 c126 -33 252 -134 309 -247 80 -157 73 -343 -19
-488 -97 -152 -286 -242 -479 -227 -132 11 -268 98 -339 218 -170 287 -45 641
262 739 67 22 195 24 266 5z m-1682 -327 c4 -3 -7 -39 -23 -80 -67 -166 -112
-382 -97 -461 10 -55 64 -98 123 -98 92 0 135 54 147 185 3 33 14 95 25 138
19 74 86 254 100 269 20 22 490 -185 516 -227 7 -11 18 -42 24 -70 17 -71 92
-220 144 -286 67 -84 174 -151 337 -212 47 -18 97 -27 177 -32 l112 -7 74 -82
c157 -173 315 -393 415 -577 l42 -75 -92 -45 c-109 -53 -294 -172 -398 -256
-158 -128 -387 -380 -411 -452 -24 -72 29 -152 110 -166 54 -9 97 13 141 73
57 77 268 283 368 360 154 118 385 253 403 235 33 -34 127 -348 149 -501 19
-130 8 -318 -24 -417 -62 -192 -214 -332 -412 -382 -107 -27 -367 -24 -504 6
-167 35 -342 99 -520 187 -302 150 -529 312 -813 580 -158 149 -203 196 -312
333 -16 21 -52 65 -80 98 -84 102 -247 369 -352 578 -47 92 -143 357 -143 393
0 15 -4 32 -10 38 -17 17 -40 166 -40 261 0 248 62 419 195 541 89 81 188 129
317 151 57 10 302 10 312 0z m-925 -1376 c22 -55 52 -125 66 -155 l27 -53 -47
45 c-62 60 -123 139 -184 240 l-49 82 24 54 c13 29 31 70 40 91 l16 38 33
-120 c19 -66 52 -166 74 -222z m-258 -224 c129 -175 367 -370 615 -505 77 -42
92 -55 192 -177 145 -175 228 -257 341 -342 51 -38 133 -104 182 -145 50 -41
131 -105 181 -142 50 -37 94 -71 97 -76 12 -18 351 -232 368 -232 6 0 52 -20
104 -45 l94 -45 -50 6 c-620 73 -1269 333 -1710 684 -246 197 -457 451 -565
683 l-31 65 67 166 c36 92 68 165 71 163 2 -3 22 -29 44 -58z m4478 -213 c260
-110 451 -344 451 -554 0 -90 -22 -151 -77 -212 -129 -143 -310 -146 -448 -6
-178 180 -206 452 -75 723 22 46 47 83 54 83 8 0 50 -15 95 -34z m-4608 -643
c132 -157 317 -325 491 -446 464 -324 1097 -560 1732 -647 64 -9 84 -15 73
-22 -10 -5 -169 -71 -356 -147 l-338 -138 -119 17 c-764 111 -1358 356 -1680
692 -94 98 -150 177 -203 288 l-39 80 120 300 120 300 65 -98 c36 -53 96 -134
134 -179z m-536 -705 c173 -264 515 -512 930 -676 185 -73 292 -106 530 -167
176 -45 206 -55 185 -63 -14 -6 -134 -54 -267 -107 l-243 -97 -127 17 c-415
55 -753 207 -963 432 -76 81 -160 207 -199 298 l-28 67 64 152 c36 83 67 159
70 169 8 26 18 21 48 -25z m-278 -685 c160 -246 439 -442 802 -564 134 -45
143 -49 117 -59 -16 -6 -111 -44 -212 -85 -206 -84 -213 -85 -378 -60 -133 20
-224 48 -329 102 -99 51 -191 134 -220 199 l-18 40 98 237 c54 130 101 237
104 237 3 0 19 -21 36 -47z m-227 -841 c59 -43 197 -116 243 -127 15 -4 27
-10 27 -14 0 -4 -121 -56 -269 -115 -226 -90 -273 -106 -290 -96 -12 6 -21 16
-21 23 0 7 34 93 76 192 42 99 82 195 90 214 l14 35 38 -36 c20 -19 62 -54 92
-76z"
                className="svg-elem-2"
              ></path>
              <path
                d="M5550 6095 c-110 -31 -190 -99 -239 -204 -22 -48 -26 -69 -26 -146 0
-76 5 -99 26 -145 39 -81 90 -134 167 -172 61 -30 74 -33 162 -33 84 0 102 3
151 28 70 34 142 109 177 185 23 48 27 71 27 142 0 76 -4 93 -33 152 -76 155
-252 237 -412 193z m149 -281 c38 -32 43 -87 11 -127 -53 -67 -160 -25 -159
63 0 81 85 117 148 64z"
                className="svg-elem-3"
              ></path>
              <path
                d="M9184 9055 c-89 -19 -160 -59 -231 -130 -74 -74 -116 -155 -133 -256
-32 -188 76 -400 245 -483 188 -92 394 -58 541 88 186 187 186 467 0 651 -73
73 -142 111 -233 130 -82 18 -109 18 -189 0z m164 -271 c74 -31 132 -111 132
-184 0 -73 -58 -153 -132 -184 -153 -64 -317 106 -253 262 42 100 155 148 253
106z"
                className="svg-elem-4"
              ></path>
              <path
                d="M8293 7760 c-12 -5 -83 -55 -158 -111 l-135 -102 -176 63 c-194 69
-242 74 -289 30 -53 -49 -51 -70 15 -266 33 -98 58 -184 56 -191 -3 -6 -51
-73 -107 -148 -95 -127 -103 -140 -107 -190 -5 -66 17 -103 81 -134 39 -19 61
-21 214 -21 l170 0 92 -139 c51 -76 103 -149 116 -161 45 -42 133 -35 176 16
8 9 41 96 74 192 l60 176 165 48 c91 26 175 53 187 60 27 14 63 83 63 122 0
51 -29 83 -176 192 l-146 109 6 182 c8 199 4 220 -50 262 -28 22 -90 27 -131
11z m-103 -469 c0 -102 6 -113 94 -176 30 -22 56 -42 56 -45 0 -4 -33 -16 -74
-28 -102 -30 -131 -56 -157 -145 -11 -40 -24 -75 -28 -79 -4 -5 -29 20 -57 54
-27 34 -60 68 -74 75 -14 7 -61 13 -108 13 l-83 0 50 66 c64 84 70 116 42 212
-12 41 -21 76 -19 77 2 2 30 -6 63 -16 102 -33 135 -28 213 30 37 28 70 51 75
51 4 0 7 -40 7 -89z"
                className="svg-elem-5"
              ></path>
            </g>
          </svg>